PathFileType	4	(X/Y/Z)	Patient4_TMGait_0pt6_01_left_40.trc.trc
DataRate	CameraRate	NumFrames	NumMarkers	Units	OrigDataRate	OrigDataStartFrame	OrigNumFrames
84.337349397591	84.337349397591	4	33	mm	84.337349397591	106	       141
Frame#	Time	Sacral			L.Shoulder			Chest			R.Shoulder			Neck			R.ASIS			L.ASIS			R.Thigh.Superior			R.Thigh.Lateral			R.Thigh.Inferior			R.Patella			L.Thigh.Superior			L.Thigh.Lateral			L.Thigh.Inferior			L.Patella			L.Shank.Superior			L.Shank.Lateral			L.Shank.Inferior			R.Shank.Superior			R.Shank.Lateral			R.Shank.Inferior			R.Heel			R.Midfoot.Superior			R.Midfoot.Lateral			R.Toe			L.Heel			L.Midfoot.Lateral			L.Midfoot.Superior			L.Toe			L.Elbow			L.Wrist			R.Elbow			R.Wrist			
		X1	Y1	Z1	X2	Y2	Z2	X3	Y3	Z3	X4	Y4	Z4	X5	Y5	Z5	X6	Y6	Z6	X7	Y7	Z7	X8	Y8	Z8	X9	Y9	Z9	X10	Y10	Z10	X11	Y11	Z11	X12	Y12	Z12	X13	Y13	Z13	X14	Y14	Z14	X15	Y15	Z15	X16	Y16	Z16	X17	Y17	Z17	X18	Y18	Z18	X19	Y19	Z19	X20	Y20	Z20	X21	Y21	Z21	X22	Y22	Z22	X23	Y23	Z23	X24	Y24	Z24	X25	Y25	Z25	X26	Y26	Z26	X27	Y27	Z27	X28	Y28	Z28	X29	Y29	Z29	X30	Y30	Z30	X31	Y31	Z31	X32	Y32	Z32	X33	Y33	Z33	

106	49.945000000000	775.560123521703	1011.698244570224	514.652238735477	935.122298524549	1437.295101770449	322.660166826936	1056.878935983911	1367.290062241230	468.801205515166	997.444184834821	1438.494400959249	652.386361938952	936.449467908818	1497.286291863085	477.378919669287	1008.099409241462	942.883624281599	610.892739058927	973.054618439060	968.961467540962	339.107417287325	1030.968175959456	737.635645058809	575.321301365953	944.020467111373	633.735315796596	638.649568776748	1009.729806717205	578.828144226751	553.803323458762	1002.147386249634	492.706723300380	557.316849242183	1061.395145552188	790.667166746188	366.706630601165	1021.136906565708	664.461230089840	285.552143329411	1124.281662329961	605.859069040387	347.812481654828	1152.707371759128	536.655820156422	339.880734080089	1129.495388922132	462.407722890166	327.728424179149	1050.717481379983	342.800038311255	271.569136522270	1124.585015637194	233.609386005525	325.468676861390	974.695317302286	403.690079777177	562.400060752831	903.498113141321	298.895830052191	622.027199137329	942.247342729852	205.529264488667	554.757071894590	805.840689193521	42.155715301107	520.021371494130	976.413214565230	96.332139156160	557.489575807630	888.204485390718	36.536454948551	595.800561110815	1096.419968418375	43.515408506875	587.017496177671	1024.607962627261	57.081042408581	355.983066837051	1097.155746506709	66.816501952137	275.173059490543	1171.288157750194	139.918301915415	300.976299641640	1303.049353219305	107.835403224907	269.554575096825	871.879836393635	1080.953092733320	222.512024922152	892.364910253894	822.623601326992	224.995470667088	1098.010958058353	1106.846771088981	769.119668262490	1349.780495286528	1080.303770438132	729.204613919897	
107	49.956857142857	774.930907047802	1011.988975672187	514.850977646557	934.072603923176	1437.413491048025	322.546533098559	1056.423522322278	1367.202489399877	468.095973736652	997.844588306072	1438.458120297994	651.892899698659	936.009549111613	1497.220996114434	477.243827473265	1007.584579713104	942.509357014272	610.211795417503	971.793245449655	968.879149235468	338.529278996436	1028.153129071223	736.753356451038	574.678939260509	940.258381933416	633.601631635233	638.477757808815	1004.964606642564	578.064009232717	553.474571605670	996.521551689615	492.203753147532	557.055433938330	1058.757132924457	789.561954574535	365.906396979299	1018.157517393019	664.066021985185	283.875332866639	1120.757954374170	604.923691052757	347.081556734819	1150.064328106205	538.314874959398	339.451488707325	1130.746789255917	465.182066423251	326.808132996533	1059.969573475224	340.987965357018	269.909212947824	1140.253564510663	236.451325840109	324.337616993137	968.623095349313	403.376394678948	562.214662930306	897.165297693069	298.841013261775	622.002320261108	935.466630180664	205.336347775094	554.682258049322	798.654709034824	42.149172183136	520.061602006948	969.225908322199	96.291420091347	557.488536477298	881.015333107830	36.520712962696	595.824755340578	1089.230789274572	43.454668429813	587.048583720544	1050.503749037490	54.780636851922	354.155963549113	1124.097544708070	67.279703583897	274.508166496374	1193.974808213289	144.402671560905	300.681141752527	1327.926309445790	118.638042093659	272.062075985593	862.976454611841	1082.798038216715	222.961936666474	873.353456304754	824.108809204079	225.645436405509	1105.650165749989	1110.019389378883	767.962139260506	1357.685971251464	1100.676094162753	724.830486287170	
108	49.968714285714	774.418942344037	1012.295140726328	514.909491541005	933.157225155750	1437.578268916169	322.308141120710	1056.043843502039	1367.116562820374	467.303961949708	998.232416435096	1438.413244410484	651.269708977245	935.593759699852	1497.150187874825	477.001973863264	1007.159411155194	942.134940796866	609.411413249592	970.659964234146	968.744145192196	337.848579567251	1025.342899408589	735.821467478434	574.097792794100	936.377994063407	633.489371939296	638.244345131717	1000.083151394814	577.288277523139	553.123329619675	990.760540888396	491.723567835759	556.780727905776	1056.012032364981	788.289977136013	365.040397864039	1015.127611972087	663.526047181384	282.165879383371	1117.300309834222	603.917201843105	346.224753142001	1147.334313599121	539.767321179164	338.991591887002	1131.570974225229	467.822145837594	325.891438053370	1068.323362130713	339.720855677633	268.558600438707	1154.398674263427	239.904804216262	323.415302846805	962.406757375218	403.112786834682	562.015552603584	890.726526894312	298.836959644211	621.982834748405	928.628135105646	205.197905123573	554.623989753763	791.461584001953	42.160218883323	520.105702268585	962.041855632619	96.258180826030	557.502788575901	873.822344716849	36.506241698426	595.853648383547	1082.045203626616	43.397051850263	587.079498812957	1074.240709485343	54.163858813798	352.946406152491	1148.704018109885	68.883116754535	274.331260641367	1214.624589302979	149.479519992399	300.580678724548	1350.272408057866	129.351118608656	274.596521970614	854.353537041285	1084.907717045428	223.295445792288	855.321378893751	826.229541991357	226.418284453293	1112.989649265616	1113.296886120661	766.616101348607	1364.141533912871	1120.597660211688	720.462785178715	
109	49.980571428571	774.007135813826	1012.591799951971	514.821137329201	932.351236599428	1437.778983288579	321.951307439793	1055.719457571558	1367.028722240811	466.431219380920	998.588163554694	1438.363203830032	650.522307512232	935.181783404229	1497.069372193535	476.648872871144	1006.821410689522	941.766654463333	608.485666147415	969.642393717691	968.577505560937	337.053869022900	1022.568628740188	734.857837370364	573.524623606534	932.452890156925	633.391604068038	637.926414617081	995.163479092157	576.505781528723	552.720760733721	984.960458399330	491.253948089589	556.466102413924	1053.278804554690	787.000245832783	364.132561678567	1012.187082489620	662.892432320674	280.526723561573	1114.093942128911	602.972651263991	345.267956973510	1144.714956210935	541.062913337305	338.477432663505	1132.078216114225	470.266534815136	324.974966563288	1075.611925925236	338.910817959233	267.588188163948	1166.825412462264	243.682308166757	322.674574190744	956.130723639963	402.886407889911	561.786500775607	884.244636569473	298.884718390401	621.955720880820	921.766901932534	205.103644700221	554.569152664061	784.263506553942	42.190108849317	520.151853025276	954.863759038308	96.231861220975	557.528451670014	866.627254820539	36.494689478797	595.886852806155	1074.865562007100	43.339619757741	587.108597433743	1095.370075305704	54.883616093463	352.414816093313	1170.458309980991	71.251754908729	274.596041017728	1232.883461964845	154.758952337625	300.570580946771	1369.762137680896	139.448389720000	276.824921467442	846.046146828257	1087.239458495996	223.523089119569	838.326777445843	828.862538364064	227.290690957943	1120.021220063597	1116.659656337224	765.102786557661	1369.255062961094	1139.861892822278	716.145192482663	
